<svg width="800" height="800" viewBox="0 0 800 800" fill="none" xmlns="http://www.w3.org/2000/svg">
<path d="M400 768C620.914 768 800 596.077 800 384C800 171.923 620.914 0 400 0C179.086 0 0 171.923 0 384C0 596.077 179.086 768 400 768Z" fill="#9C9C9C"/>
<path d="M305.813 320.816C305.813 320.816 319.684 335.15 320.915 343.232L308.848 350.182L294.921 325.775L287.575 293.195C286.886 292.505 286.391 291.644 286.141 290.7C285.891 289.756 285.896 288.763 286.154 287.821C286.412 286.88 286.915 286.023 287.611 285.339C288.308 284.655 289.173 284.167 290.119 283.925C291.064 283.683 292.057 283.695 292.997 283.961C293.936 284.227 294.789 284.737 295.467 285.438C296.146 286.14 296.627 287.009 296.862 287.957C297.096 288.904 297.075 289.897 296.802 290.835L305.813 320.816Z" fill="#FFB6B6"/>
<path d="M434.466 286.447C434.228 285.5 434.244 284.507 434.513 283.569C434.783 282.63 435.296 281.78 436 281.104C436.704 280.428 437.575 279.95 438.524 279.719C439.472 279.489 440.465 279.513 441.401 279.79C442.338 280.067 443.184 280.586 443.854 281.296C444.525 282.006 444.995 282.88 445.219 283.831C445.442 284.781 445.409 285.774 445.125 286.708C444.84 287.642 444.314 288.484 443.599 289.149L435.05 321.433L420.227 345.306L408.426 337.914C409.956 329.884 424.349 316.074 424.349 316.074L434.466 286.447Z" fill="#FFB6B6"/>
<path d="M214.656 403.548C214.569 384.521 221.872 366.588 229.989 349.715C238.377 332.279 247.925 315.174 252.665 296.271C255.433 285.861 256.106 275.006 254.646 264.334C254.359 262.431 251.468 263.24 251.753 265.132C254.66 284.439 248.377 303.669 240.554 321.082C232.795 338.35 223.124 354.777 217.071 372.785C213.59 382.672 211.76 393.066 211.656 403.548C211.67 403.937 211.834 404.306 212.113 404.576C212.393 404.846 212.767 404.997 213.156 404.997C213.545 404.997 213.919 404.846 214.199 404.576C214.479 404.306 214.643 403.937 214.656 403.548Z" fill="#E6E6E6"/>
<path d="M301.846 409.932C301.204 401.832 306.923 395.074 313.672 391.356C322.237 386.638 332.604 387.043 342.069 387.324C351.779 387.711 361.505 387.249 371.135 385.941C393.876 382.637 415.515 374.008 434.289 360.756C453.064 347.505 468.442 330.006 479.173 309.686C488.075 292.832 494.342 273.4 491.839 254.153C491.537 251.812 491.106 249.49 490.549 247.197C490.092 245.322 487.198 246.116 487.656 247.995C492.316 267.116 486.974 287.144 478.501 304.405C470.714 320.229 460.092 334.491 447.162 346.484C433.621 359.045 417.757 368.84 400.461 375.319C391.479 378.678 382.188 381.144 372.723 382.681C363.129 384.166 353.415 384.732 343.714 384.373C334.069 384.092 323.847 383.583 314.782 387.486C307.688 390.541 301.102 396.593 299.275 404.328C298.842 406.162 298.697 408.053 298.846 409.932C298.997 411.844 301.998 411.86 301.846 409.932Z" fill="#E6E6E6"/>
<path d="M607.386 132.631C603.856 131.041 600.386 129.511 597.066 128.101C596.566 127.891 596.066 127.671 595.566 127.461L595.506 127.431C592.516 126.151 589.519 124.898 586.516 123.671C584.416 122.811 582.326 121.961 580.226 121.131C579.406 120.791 578.586 120.471 577.756 120.151C576.426 119.621 575.086 119.101 573.756 118.581C572.656 118.151 571.546 117.731 570.446 117.311C569.176 116.821 567.906 116.351 566.646 115.871C565.146 115.311 563.649 114.758 562.156 114.211C562.141 114.203 562.123 114.2 562.106 114.201C560.976 113.781 559.846 113.371 558.726 112.971C543.516 107.491 528.086 102.591 512.846 98.4014C512.296 98.2514 511.746 98.1014 511.196 97.9514C510.246 97.6914 509.296 97.4314 508.346 97.1714C506.666 96.7214 504.979 96.2814 503.286 95.8514C501.696 95.4314 500.096 95.0314 498.496 94.6314C497.086 94.2814 495.676 93.9314 494.256 93.5914C492.866 93.2514 491.476 92.9214 490.076 92.6014C485.906 91.6213 481.743 90.6947 477.586 89.8214C477.557 89.8131 477.526 89.8097 477.496 89.8114C476.496 89.5914 475.506 89.3814 474.506 89.1814C459.326 86.0714 443.886 83.5714 428.616 81.7414C427.866 81.6514 427.116 81.5614 426.366 81.4814H426.346C426.216 81.4614 426.076 81.4514 425.946 81.4414C424.686 81.2914 423.426 81.1514 422.166 81.0214C420.506 80.8414 418.856 80.6714 417.196 80.5114C413.266 80.1214 409.343 79.7814 405.426 79.4914C404.436 79.4114 403.456 79.3414 402.476 79.2814C401.346 79.1914 400.216 79.1214 399.096 79.0514C397.936 78.9714 396.776 78.9014 395.616 78.8414C395.176 78.8114 394.746 78.7914 394.316 78.7714C393.776 78.7314 393.226 78.7114 392.686 78.6814C391.876 78.6414 391.066 78.6014 390.256 78.5614C375.016 77.8314 359.586 77.7714 344.386 78.3814C343.546 78.4114 342.706 78.4514 341.856 78.4914H341.826C341.216 78.5214 340.606 78.5414 339.986 78.5714C339.766 78.5814 339.536 78.5914 339.316 78.6014C337.806 78.6814 336.296 78.7614 334.786 78.8514C333.176 78.9414 331.576 79.0414 329.976 79.1514C328.966 79.2214 327.966 79.2914 326.966 79.3614C326.306 79.4114 325.646 79.4614 324.976 79.5114C320.796 79.8314 316.616 80.2014 312.466 80.6214C311.076 80.7614 309.696 80.9014 308.316 81.0514C307.546 81.1314 306.786 81.2114 306.026 81.3014C290.786 83.0214 275.346 85.4514 260.146 88.5114C259.146 88.7114 258.136 88.9214 257.126 89.1314C257.106 89.1314 257.086 89.1414 257.066 89.1414C256.916 89.1714 256.756 89.2014 256.606 89.2414C255.566 89.4514 254.516 89.6714 253.476 89.9014C252.326 90.1414 251.186 90.3914 250.036 90.6414C249.076 90.8514 248.116 91.0714 247.156 91.2914C244.896 91.8014 242.626 92.3214 240.366 92.8714C235.766 93.9714 231.169 95.1347 226.576 96.3614C225.536 96.6414 224.486 96.9214 223.436 97.2114C223.428 97.2121 223.421 97.2157 223.416 97.2214C222.876 97.3614 222.326 97.5114 221.786 97.6614C206.586 101.841 191.156 106.781 175.916 112.361C174.796 112.771 173.676 113.181 172.546 113.611C172.518 113.613 172.491 113.62 172.466 113.631C169.436 114.761 166.389 115.921 163.326 117.111C162.216 117.551 161.096 117.991 159.976 118.431C158.896 118.861 157.806 119.291 156.726 119.731C155.776 120.111 154.836 120.491 153.886 120.881C153.126 121.191 152.376 121.501 151.616 121.811C149.016 122.891 146.419 123.985 143.826 125.091C142.256 125.771 140.676 126.451 139.106 127.141C138.596 127.361 138.076 127.581 137.566 127.811C133.786 129.481 130.346 131.031 127.046 132.561C123.532 134.187 120.554 136.782 118.464 140.041C116.374 143.301 115.257 147.089 115.246 150.961V186.251C115.246 189.395 115.979 192.496 117.386 195.308C118.793 198.12 120.835 200.565 123.352 202.449C125.868 204.334 128.79 205.607 131.883 206.166C134.977 206.725 138.159 206.556 141.176 205.671C142.666 205.231 144.156 204.791 145.656 204.351C146.906 203.981 148.166 203.621 149.416 203.261C150.786 202.871 152.146 202.481 153.516 202.091C156.646 201.221 159.796 200.351 162.946 199.511C164.416 199.121 165.886 198.731 167.356 198.341C169.666 197.731 171.976 197.141 174.286 196.551C174.926 196.391 175.566 196.231 176.206 196.071C186.256 193.551 196.356 191.211 206.376 189.091C207.406 188.871 208.436 188.661 209.456 188.451C213.666 187.571 217.853 186.738 222.016 185.951L225.016 185.381H225.046C226.026 185.191 227.006 185.011 227.986 184.831C230.726 184.331 233.483 183.845 236.256 183.371C237.846 183.091 239.446 182.821 241.046 182.561C241.206 182.531 241.366 182.501 241.526 182.481C244.286 182.021 247.053 181.578 249.826 181.151C251.706 180.861 253.596 180.571 255.486 180.301C257.096 180.061 258.706 179.831 260.316 179.601C275.576 177.461 290.986 175.751 306.126 174.551C307.436 174.441 308.746 174.341 310.056 174.241C315.136 173.861 320.256 173.521 325.386 173.241C331.726 172.901 338.086 172.631 344.416 172.441C359.616 171.971 375.026 171.971 390.216 172.441C396.556 172.631 402.916 172.901 409.256 173.241C414.386 173.521 419.506 173.861 424.586 174.241C425.896 174.341 427.206 174.441 428.516 174.551C443.646 175.751 459.056 177.451 474.336 179.601C475.066 179.701 475.786 179.811 476.516 179.911C476.776 179.951 477.026 179.981 477.286 180.021C478.396 180.181 479.506 180.351 480.616 180.511C484.786 181.131 488.953 181.788 493.116 182.481C494.186 182.651 495.256 182.831 496.316 183.011C498.606 183.401 500.886 183.798 503.156 184.201C504.476 184.441 505.786 184.681 507.096 184.921C507.926 185.071 508.766 185.221 509.596 185.381C510.606 185.571 511.616 185.761 512.616 185.951C514.266 186.261 515.916 186.581 517.576 186.911C518.616 187.121 519.666 187.321 520.716 187.541C531.906 189.791 543.206 192.321 554.456 195.081C555.626 195.371 556.796 195.661 557.966 195.951C558.126 195.991 558.276 196.031 558.436 196.071C559.646 196.371 560.856 196.681 562.066 196.991C563.796 197.431 565.529 197.881 567.266 198.341C568.736 198.721 570.206 199.111 571.676 199.511C576.216 200.721 580.756 201.981 585.266 203.271C588.016 204.061 590.753 204.861 593.476 205.671H593.496C594.581 205.993 595.692 206.22 596.816 206.351C597.612 206.451 598.414 206.501 599.216 206.501C604.577 206.49 609.714 204.351 613.498 200.554C617.282 196.757 619.403 191.612 619.396 186.251V151.121C619.386 147.21 618.248 143.386 616.117 140.106C613.987 136.826 610.955 134.231 607.386 132.631Z" fill="#2F9C7F"/>
<path d="M175.266 113.982C174.874 113.71 174.423 113.535 173.95 113.471C173.477 113.407 172.996 113.455 172.546 113.612C172.518 113.614 172.491 113.621 172.466 113.632C169.436 114.762 166.389 115.922 163.326 117.112C162.216 117.552 161.096 117.992 159.976 118.432C158.896 118.862 157.806 119.292 156.726 119.732C155.776 120.112 154.836 120.492 153.886 120.882C153.126 121.192 152.376 121.502 151.616 121.812C149.016 122.892 146.419 123.986 143.826 125.092C142.256 125.772 140.676 126.452 139.106 127.142C138.559 127.381 138.093 127.773 137.766 128.273C137.439 128.772 137.265 129.356 137.266 129.952V202.722C137.264 203.202 137.375 203.676 137.59 204.106C137.806 204.535 138.119 204.907 138.506 205.192C138.751 205.372 139.02 205.517 139.306 205.622C139.909 205.834 140.564 205.848 141.176 205.662L145.646 204.342C146.896 203.982 148.146 203.622 149.396 203.262C150.766 202.872 152.136 202.482 153.516 202.092C156.646 201.222 159.796 200.352 162.946 199.512C164.416 199.112 165.886 198.722 167.356 198.342C169.666 197.732 171.976 197.142 174.286 196.552C174.856 196.407 175.373 196.101 175.776 195.672L175.786 195.662C176.299 195.099 176.584 194.365 176.586 193.602V116.502C176.586 116.007 176.466 115.519 176.236 115.08C176.006 114.641 175.673 114.264 175.266 113.982Z" fill="#0F3D3A"/>
<path d="M259.606 89.7612C259.264 89.4798 258.865 89.2774 258.436 89.1685C258.008 89.0596 257.56 89.0469 257.126 89.1312C257.106 89.1312 257.086 89.1412 257.066 89.1412C256.916 89.1712 256.756 89.2012 256.606 89.2412C255.566 89.4512 254.516 89.6712 253.476 89.9012C252.326 90.1412 251.186 90.3912 250.036 90.6412C249.076 90.8512 248.116 91.0712 247.156 91.2912C244.896 91.8012 242.626 92.3212 240.366 92.8712C235.756 93.9712 231.159 95.1346 226.576 96.3612C225.616 96.6112 224.646 96.8712 223.686 97.1312C223.601 97.1533 223.518 97.18 223.436 97.2112C223.428 97.2119 223.421 97.2155 223.416 97.2212C222.832 97.4417 222.33 97.8342 221.974 98.3467C221.619 98.8592 221.428 99.4675 221.426 100.091V182.381C221.425 182.83 221.523 183.273 221.713 183.679C221.903 184.085 222.181 184.445 222.526 184.731C222.762 184.929 223.029 185.088 223.316 185.201C223.684 185.352 224.078 185.43 224.476 185.431C224.657 185.429 224.837 185.413 225.016 185.381H225.046C226.026 185.191 227.006 185.011 227.986 184.831C230.726 184.331 233.482 183.845 236.256 183.371C237.846 183.091 239.446 182.821 241.046 182.561C241.206 182.531 241.366 182.501 241.526 182.481C244.286 182.021 247.052 181.578 249.826 181.151C251.706 180.861 253.596 180.571 255.486 180.301C256.366 180.161 257.246 180.041 258.126 179.911C258.708 179.831 259.255 179.58 259.696 179.191C260.024 178.905 260.288 178.551 260.469 178.155C260.65 177.758 260.744 177.327 260.746 176.891V92.1412C260.746 91.6844 260.644 91.2334 260.447 90.8215C260.249 90.4096 259.962 90.0472 259.606 89.7612Z" fill="#0F3D3A"/>
<path d="M343.956 79.3422C343.389 78.8031 342.638 78.4994 341.856 78.4922H341.706C341.136 78.5222 340.556 78.5422 339.986 78.5722C339.766 78.5822 339.536 78.5922 339.316 78.6022C337.806 78.6822 336.296 78.7622 334.786 78.8522C333.176 78.9422 331.576 79.0422 329.976 79.1522C328.966 79.2222 327.966 79.2922 326.966 79.3622C326.306 79.4122 325.646 79.4622 324.976 79.5122C320.796 79.8322 316.616 80.2022 312.466 80.6222C311.076 80.7622 309.696 80.9022 308.316 81.0522C307.564 81.1332 306.869 81.4897 306.365 82.053C305.861 82.6162 305.583 83.3463 305.586 84.1022V171.292C305.585 171.712 305.672 172.127 305.841 172.511C306.009 172.895 306.256 173.239 306.566 173.522C306.752 173.698 306.961 173.85 307.186 173.972C307.634 174.215 308.136 174.342 308.646 174.342C308.716 174.342 308.796 174.332 308.876 174.332C309.266 174.302 309.666 174.272 310.056 174.242C315.136 173.862 320.256 173.522 325.386 173.242C330.916 172.932 336.446 172.692 341.946 172.512C342.541 172.503 343.119 172.315 343.606 171.972C344.009 171.69 344.338 171.314 344.565 170.877C344.791 170.44 344.908 169.954 344.906 169.462V81.5622C344.908 81.1469 344.824 80.7356 344.661 80.3538C344.498 79.9719 344.258 79.6277 343.956 79.3422Z" fill="#0F3D3A"/>
<path d="M426.368 81.4821H426.348C426.218 81.4621 426.078 81.4521 425.948 81.4421C424.688 81.2921 423.428 81.1521 422.168 81.0221C420.508 80.8421 418.858 80.6721 417.198 80.5121C413.268 80.1221 409.345 79.7821 405.428 79.4921C404.438 79.4121 403.458 79.342 402.478 79.282C401.348 79.192 400.218 79.1221 399.098 79.0521C397.938 78.9721 396.778 78.902 395.618 78.842C395.178 78.812 394.748 78.7921 394.318 78.7721C393.858 78.7421 393.408 78.7121 392.958 78.6921C392.869 78.6837 392.778 78.6804 392.688 78.6821C391.943 78.7042 391.234 79.0038 390.698 79.5221C390.394 79.8082 390.152 80.1538 389.987 80.5374C389.822 80.921 389.737 81.3344 389.738 81.752V169.462C389.736 169.955 389.854 170.442 390.082 170.879C390.31 171.317 390.642 171.692 391.048 171.972C391.531 172.315 392.106 172.503 392.698 172.512C398.198 172.692 403.728 172.932 409.258 173.242C414.388 173.522 419.508 173.862 424.588 174.242C424.978 174.272 425.378 174.302 425.768 174.332C425.848 174.332 425.918 174.342 425.998 174.342C426.508 174.342 427.01 174.215 427.458 173.972C427.684 173.849 427.892 173.698 428.078 173.522C428.386 173.238 428.632 172.893 428.801 172.509C428.969 172.125 429.057 171.711 429.058 171.292V84.5221C429.056 83.775 428.781 83.0544 428.286 82.495C427.791 81.9355 427.11 81.5755 426.368 81.4821Z" fill="#0F3D3A"/>
<path d="M511.198 97.9511C511.12 97.9199 511.04 97.8932 510.958 97.8711C510.088 97.6311 509.218 97.4011 508.348 97.1711C506.668 96.7211 504.982 96.2811 503.288 95.8511C501.698 95.4311 500.098 95.0311 498.498 94.6311C497.088 94.2811 495.678 93.9311 494.258 93.5911C492.868 93.2511 491.478 92.9211 490.078 92.6011C485.908 91.621 481.745 90.6944 477.588 89.8211C477.559 89.8128 477.529 89.8094 477.498 89.8111C477.067 89.7304 476.624 89.745 476.199 89.8538C475.774 89.9627 475.378 90.1631 475.038 90.4411C474.682 90.7271 474.395 91.0894 474.198 91.5014C474 91.9133 473.898 92.3643 473.898 92.8211V176.891C473.899 177.328 473.995 177.76 474.177 178.157C474.36 178.554 474.627 178.906 474.958 179.191C475.396 179.58 475.939 179.83 476.518 179.911C476.778 179.951 477.029 179.981 477.289 180.021C478.399 180.181 479.509 180.341 480.619 180.511C484.789 181.131 488.955 181.788 493.119 182.481C494.189 182.651 495.258 182.831 496.318 183.011C498.608 183.401 500.889 183.798 503.159 184.201C504.479 184.441 505.789 184.681 507.099 184.921C507.929 185.071 508.769 185.221 509.599 185.381C509.787 185.413 509.978 185.429 510.169 185.431C510.567 185.431 510.961 185.353 511.328 185.201C511.616 185.09 511.883 184.931 512.119 184.731C512.464 184.445 512.741 184.085 512.931 183.679C513.121 183.273 513.22 182.83 513.219 182.381V100.831C513.217 100.202 513.023 99.5883 512.662 99.0732C512.3 98.5581 511.79 98.1664 511.198 97.9511Z" fill="#0F3D3A"/>
<path d="M595.569 127.461L595.509 127.431C592.519 126.151 589.522 124.898 586.519 123.671C584.419 122.811 582.329 121.961 580.229 121.131C579.409 120.791 578.589 120.471 577.759 120.151C576.429 119.621 575.089 119.101 573.759 118.581C572.659 118.151 571.549 117.731 570.449 117.311C569.179 116.821 567.909 116.351 566.649 115.871C565.149 115.311 563.652 114.758 562.159 114.211C562.143 114.203 562.126 114.2 562.109 114.201C561.655 114.038 561.169 113.987 560.692 114.054C560.214 114.12 559.76 114.301 559.369 114.581C558.964 114.863 558.634 115.239 558.406 115.676C558.178 116.113 558.059 116.598 558.059 117.091V193.601C558.059 194.236 558.258 194.855 558.629 195.371C558.7 195.472 558.777 195.569 558.859 195.661L558.869 195.671C559.27 196.102 559.787 196.408 560.359 196.551C560.929 196.691 561.499 196.841 562.069 196.991C563.799 197.431 565.532 197.881 567.269 198.341C568.739 198.721 570.209 199.111 571.679 199.511C576.219 200.721 580.759 201.981 585.269 203.271C588.019 204.061 590.755 204.861 593.479 205.671H593.499C593.775 205.75 594.061 205.791 594.349 205.791C594.686 205.79 595.02 205.733 595.339 205.621C595.626 205.52 595.896 205.375 596.139 205.191C596.522 204.904 596.833 204.531 597.046 204.102C597.26 203.673 597.37 203.2 597.369 202.721V130.251C597.37 129.662 597.201 129.085 596.881 128.59C596.562 128.095 596.106 127.703 595.569 127.461Z" fill="#0F3D3A"/>
<path d="M145.722 204.402C158.745 213.176 172.342 221.066 186.044 228.721C200.703 236.91 215.515 244.821 230.177 253.005C244.927 261.238 259.546 269.737 273.648 279.046C287.361 287.922 300.326 297.902 312.414 308.888C323.862 319.485 334.231 331.327 342.382 344.663C343.354 346.253 344.294 347.862 345.201 349.49C346.142 351.176 348.734 349.665 347.791 347.976C340.028 334.382 330.363 321.966 319.088 311.105C307.299 299.753 294.534 289.458 280.942 280.34C266.932 270.75 252.327 262.06 237.554 253.707C222.824 245.379 207.903 237.396 193.095 229.207C179.156 221.499 165.287 213.622 151.936 204.925C150.361 203.899 148.795 202.861 147.237 201.811C145.631 200.729 144.128 203.327 145.722 204.402Z" fill="#3F3D56"/>
<path d="M196.338 169.196C202.577 183.256 210.242 196.638 219.214 209.133C228.396 221.93 238.216 234.255 248.639 246.063C259.065 258.073 269.803 269.808 280.304 281.752C290.686 293.56 300.865 305.577 310.161 318.267C319.385 330.619 327.397 343.832 334.084 357.723C334.893 359.445 335.675 361.179 336.431 362.926C337.196 364.693 339.782 363.167 339.021 361.412C332.782 347.352 325.116 333.969 316.145 321.474C306.963 308.678 297.142 296.352 286.72 284.545C276.294 272.534 265.556 260.8 255.055 248.856C244.673 237.047 234.494 225.031 225.198 212.34C215.974 199.988 207.962 186.775 201.275 172.885C200.466 171.163 199.683 169.428 198.928 167.682C198.162 165.915 195.577 167.441 196.338 169.196Z" fill="#3F3D56"/>
<path d="M563.057 187.087C551.615 198.005 539.498 208.192 526.777 217.588C513.577 227.523 500.018 236.969 486.527 246.502C473.058 256.019 459.636 265.619 446.703 275.86C434.223 285.541 422.504 296.164 411.647 307.635C401.516 318.56 392.435 330.591 385.628 343.879C384.809 345.477 384.025 347.092 383.274 348.723C382.471 350.464 385.056 351.99 385.864 350.237C392.198 336.88 400.445 324.518 410.344 313.54C420.812 301.931 432.223 291.208 444.459 281.481C457.172 271.16 470.45 261.561 483.803 252.092C497.304 242.517 510.911 233.086 524.209 223.227C537.055 213.885 549.366 203.828 561.085 193.106C562.463 191.821 563.827 190.522 565.178 189.208C566.565 187.86 564.443 185.74 563.057 187.087Z" fill="#3F3D56"/>
<path d="M532.137 159.471C525.898 173.531 518.233 186.914 509.261 199.409C500.073 212.2 490.241 224.517 479.802 236.31C469.366 248.312 458.627 260.046 448.133 271.997C437.759 283.813 427.61 295.852 418.314 308.543C409.09 320.895 401.078 334.108 394.391 347.998C393.582 349.72 392.8 351.455 392.045 353.201C391.285 354.955 393.869 356.484 394.635 354.715C400.874 340.655 408.54 327.273 417.511 314.778C426.699 301.986 436.532 289.67 446.97 277.877C457.406 265.874 468.146 254.141 478.639 242.189C489.014 230.374 499.162 218.335 508.458 205.644C517.682 193.292 525.694 180.079 532.381 166.188C533.19 164.466 533.973 162.732 534.728 160.985C535.488 159.232 532.904 157.703 532.137 159.471Z" fill="#3F3D56"/>
<path d="M310.668 540.366L312.559 546.925L338.761 542.754L335.97 533.072L310.668 540.366Z" fill="#FFB6B6"/>
<path d="M303.762 542.106L309.576 562.278L309.831 562.205C311.913 561.604 313.672 560.202 314.72 558.305C315.768 556.408 316.02 554.173 315.42 552.09L317.153 547.6L312.376 541.53L311.868 539.77L303.762 542.106Z" fill="#2F2E41"/>
<path d="M423.172 572.587L429.833 571.09L427.229 544.686L417.398 546.896L423.172 572.587Z" fill="#FFB6B6"/>
<path d="M422.557 580.066L443.039 575.463L442.981 575.204C442.506 573.09 441.21 571.251 439.379 570.092C437.548 568.932 435.332 568.548 433.217 569.023L428.838 567.025L422.495 571.433L420.707 571.834L422.557 580.066Z" fill="#2F2E41"/>
<path d="M402.783 431.172L432.944 554.932L418.19 556.239L401.843 514.821L376.608 466.072L378.889 521.713L331.939 549.17L320.906 534.056L358.439 513.87L342.044 440.232L346.407 431.172L402.783 431.172Z" fill="#041720"/>
<path d="M342.355 442.01C337.466 435.164 346.511 423.894 347.62 421.509C346.303 421.082 345.175 420.211 344.428 419.046C343.681 417.88 343.361 416.491 343.523 415.116L344.001 411.052L344.499 407.065L340.929 403.495L340.919 403.406L338.864 385.427L335.877 373.486C334.751 368.972 334.847 364.239 336.155 359.774C337.462 355.309 339.934 351.273 343.318 348.079L350.223 346.983L358.615 338.896H372.149L376.79 343.33C385.452 344.849 386.94 344.353 394.381 353.282L391 381.043L390.157 384.863L390.159 390.042L392.304 392.426C393.076 393.284 393.637 394.311 393.943 395.425C394.248 396.539 394.289 397.708 394.063 398.841L393.781 400.251C395.992 401.198 398.103 418.042 398.607 420.395L399.36 423.909C400.005 424.76 404.258 430.431 404.258 431.981C404.258 432.214 404.086 432.439 403.717 432.688C400.819 434.651 375.446 439.847 368.355 437.01C360.803 433.99 342.355 442.01 342.355 442.01Z" fill="#E6E6E6"/>
<path d="M315.236 359.638L321.186 366.916C323.426 369.655 326.185 371.924 329.305 373.593C332.424 375.262 335.843 376.298 339.365 376.64C341.547 376.845 343.743 376.435 345.704 375.456C347.666 374.478 349.314 372.971 350.464 371.105C352.006 368.565 352.525 365.535 351.918 362.626C351.31 359.718 349.621 357.149 347.192 355.438C339.82 350.257 335.798 342.229 330.003 344.832L328.756 341.769L312.416 328.566L299.023 340.058L315.236 359.638Z" fill="#E6E6E6"/>
<path d="M430.426 335.553L417.469 323.572L407.364 330.007L406.004 333.021C400.31 330.205 389.28 344.231 381.721 349.136C379.229 350.755 377.446 353.26 376.731 356.143C376.016 359.027 376.423 362.075 377.869 364.67C378.949 366.578 380.541 368.145 382.464 369.195C384.388 370.245 386.567 370.737 388.756 370.613C392.287 370.402 395.742 369.494 398.922 367.942C402.101 366.39 404.943 364.224 407.282 361.57L413.499 354.518L430.426 335.553Z" fill="#E6E6E6"/>
<path d="M364.468 334.99C372.769 334.99 379.498 328.261 379.498 319.96C379.498 311.659 372.769 304.93 364.468 304.93C356.167 304.93 349.438 311.659 349.438 319.96C349.438 328.261 356.167 334.99 364.468 334.99Z" fill="#FFB6B6"/>
<path d="M353.561 330.553C353.43 330.438 353.306 330.316 353.178 330.197C353.174 330.209 353.173 330.222 353.168 330.234L353.561 330.553Z" fill="#2F2E41"/>
<path d="M378.576 314.322C378.496 314.272 378.426 314.222 378.346 314.182C377.358 313.405 376.133 312.992 374.876 313.012C373.676 313.162 372.686 314.022 371.536 314.362C369.066 315.082 366.576 313.322 364.016 313.142H363.956C363.141 313.091 362.323 313.201 361.55 313.465C360.777 313.73 360.064 314.145 359.451 314.685C358.838 315.225 358.337 315.881 357.978 316.615C357.619 317.349 357.407 318.147 357.356 318.962C357.306 319.792 357.416 320.622 357.316 321.442C357.289 321.858 357.16 322.261 356.94 322.615C356.72 322.969 356.417 323.263 356.056 323.472C354.926 323.982 353.406 323.222 352.446 324.012C351.596 324.722 351.906 326.102 352.416 327.092C353.012 327.926 353.304 328.939 353.246 329.962C353.228 330.043 353.204 330.124 353.176 330.202C350.862 328.047 349.025 325.43 347.785 322.521C346.545 319.611 345.929 316.474 345.976 313.312C345.937 311.918 346.224 310.535 346.816 309.272C347.114 308.643 347.563 308.097 348.123 307.683C348.683 307.27 349.337 307.001 350.026 306.902C351.206 306.802 352.426 307.332 353.546 306.952C354.926 306.492 355.506 304.902 356.226 303.622C357.114 302.096 358.405 300.844 359.957 300.002C361.509 299.161 363.263 298.763 365.026 298.852C366.295 298.976 367.548 299.228 368.766 299.602L371.146 300.252C372.054 300.466 372.936 300.778 373.776 301.182C375.005 301.888 376.039 302.888 376.786 304.092C377.42 305.061 377.921 306.11 378.276 307.212C376.958 307.281 375.636 307.234 374.326 307.072C375.826 308.002 377.336 308.932 378.836 309.862C379.014 311.352 378.926 312.863 378.576 314.322Z" fill="#2F2E41"/>
<path d="M726.256 17.7516C723.396 8.17165 715.316 1.92165 705.556 0.551653C705.456 0.541653 705.346 0.561603 705.246 0.551653C705.109 0.507777 704.968 0.47435 704.826 0.451654C691 -1.23024 677.012 1.81483 665.136 9.09165C662.419 10.7899 659.577 12.2807 656.636 13.5517C647.205 17.5277 637.117 19.7116 626.886 19.9916C626.806 19.9916 626.726 20.0016 626.646 20.0016C621.635 20.3346 616.849 22.204 612.939 25.3552C609.029 28.5064 606.186 32.7861 604.796 37.6116C604.649 38.2016 604.693 38.8232 604.924 39.3861C605.154 39.949 605.558 40.4238 606.076 40.7416C607.569 42.0068 609.335 42.9072 611.236 43.3716C615.346 44.2416 619.466 45.0382 623.596 45.7616C631.666 47.1716 639.776 48.3115 647.926 49.1815C653.326 49.7615 658.736 50.2149 664.156 50.5415C675.336 51.2415 686.566 51.4116 697.766 51.0616C703.306 50.8916 708.646 50.7116 713.726 48.2616C717.419 46.4393 720.573 43.6853 722.876 40.2716C725.049 36.9919 726.477 33.2765 727.061 29.3861C727.645 25.4956 727.37 21.5246 726.256 17.7516Z" fill="#F2F2F2"/>
<path d="M532.598 386.001C530.538 379.101 524.718 374.591 517.678 373.601C517.598 373.591 517.528 373.611 517.448 373.601C517.349 373.572 517.249 373.549 517.148 373.531C507.178 372.313 497.089 374.509 488.528 379.761C480.278 384.911 470.668 387.241 460.948 387.621C460.891 387.62 460.834 387.623 460.778 387.631C457.167 387.872 453.717 389.219 450.899 391.49C448.081 393.76 446.031 396.844 445.028 400.321C444.92 400.747 444.951 401.195 445.117 401.602C445.282 402.009 445.573 402.352 445.948 402.581C447.021 403.495 448.296 404.143 449.668 404.471C452.628 405.101 455.608 405.671 458.588 406.201C464.398 407.211 470.258 408.031 476.128 408.661C488.058 409.944 500.064 410.398 512.058 410.021C516.048 409.901 519.898 409.771 523.558 408.001C526.224 406.688 528.502 404.703 530.168 402.241C531.732 399.875 532.76 397.195 533.18 394.39C533.6 391.585 533.401 388.722 532.598 386.001Z" fill="#F2F2F2"/>
<path d="M216.598 304.001C214.538 297.101 208.718 292.591 201.678 291.601C201.598 291.591 201.528 291.611 201.448 291.601C201.349 291.572 201.249 291.549 201.148 291.531C191.178 290.313 181.089 292.509 172.528 297.761C164.278 302.911 154.668 305.241 144.948 305.621C144.891 305.62 144.834 305.623 144.778 305.631C141.167 305.872 137.717 307.219 134.899 309.49C132.081 311.76 130.031 314.844 129.028 318.321C128.92 318.747 128.951 319.195 129.117 319.602C129.282 320.009 129.573 320.352 129.948 320.581C131.021 321.495 132.296 322.143 133.668 322.471C136.628 323.101 139.608 323.671 142.588 324.201C148.398 325.211 154.258 326.031 160.128 326.661C172.058 327.944 184.064 328.398 196.058 328.021C200.048 327.901 203.898 327.771 207.558 326.001C210.224 324.688 212.502 322.703 214.168 320.241C215.732 317.875 216.76 315.195 217.18 312.39C217.6 309.585 217.401 306.721 216.598 304.001Z" fill="#F2F2F2"/>
<path d="M294.84 735.79C298.22 739.5 300.32 753.13 303.5 757C256.219 748.542 210.708 723.493 170 698C169.03 697.393 167.84 696.3 167 695.76C143.901 681.048 124.403 662.278 105 642.95C108.4 639.76 110.5 637.86 110.5 637.86C157.95 586.9 163.27 568.96 210.72 518C226.5 581.94 292.85 626.36 327.65 682.27C317.503 689.351 306.402 694.957 294.68 698.92C294.6 699.01 294.52 699.11 294.44 699.2C290.023 704.294 287.625 710.829 287.698 717.571C287.772 724.313 290.313 730.794 294.84 735.79Z" fill="#F2F2F2"/>
<path d="M746 576.5C717.583 628.601 672.315 668.619 623.5 702.37C622.46 703.09 622.5 703.37 618 706C581 729.15 545 743.5 504.851 754.12C502.916 752.629 500.742 751.476 498.421 750.71V750.69C501.021 745.83 503.621 740.97 506.221 736.11C497.241 745.27 481.581 746.84 470.961 739.66C472.708 735.716 475.2 732.147 478.301 729.15C475.701 730.34 471.661 728.62 470.541 725.62C469.131 721.87 470.731 717.72 472.411 714.08C490.941 674 551.651 609.11 552.601 608.1C551.951 608.5 524.231 625.91 508.151 624.62C507.331 619.7 486.001 613.69 483.621 611.19C493.311 589.4 538.251 548.86 538.251 548.86C585.701 497.9 591.021 479.96 638.471 429C651.971 483.7 709.9 530.96 746 576.5Z" fill="#F2F2F2"/>
<g opacity="0.2">
<path d="M104 189.775C104.295 189.384 104.605 189.008 104.906 188.622L104.922 188.469L104 189.775Z" fill="black"/>
<path d="M617.362 193.899C615.703 197.843 612.809 201.142 609.113 203.299C605.418 205.456 601.122 206.354 596.872 205.859C595.769 205.726 594.678 205.502 593.612 205.189C581.922 201.709 570.236 198.509 558.552 195.589C543.272 191.749 527.992 188.372 512.712 185.459C499.942 183.019 487.172 180.902 474.402 179.109C459.112 176.959 443.829 175.272 428.552 174.049C415.782 173.019 403.009 172.316 390.232 171.939C374.952 171.469 359.676 171.469 344.402 171.939C331.632 172.319 318.859 173.022 306.082 174.049C290.802 175.269 275.522 176.956 260.242 179.109C247.472 180.909 234.699 183.026 221.922 185.459C206.642 188.369 191.362 191.746 176.082 195.589C164.392 198.519 152.709 201.719 141.032 205.189C139.966 205.502 138.876 205.726 137.772 205.859C135.005 206.183 132.201 205.917 129.544 205.079C126.886 204.242 124.437 202.851 122.356 200.998C120.275 199.146 118.61 196.874 117.47 194.332C116.33 191.79 115.741 189.035 115.742 186.249V177.009C138.292 156.619 170.192 147.169 200.952 143.949C237.532 140.119 274.702 143.389 311.082 137.959C340.742 133.529 370.212 123.319 399.992 126.869C425.942 129.949 449.592 143.249 475.182 148.569C507.282 155.239 541.172 149.109 572.982 157.039C585.452 160.139 597.672 165.589 606.582 174.839C611.745 180.167 615.456 186.729 617.362 193.899Z" fill="black"/>
</g>
<path d="M366.127 402.435C376.738 402.435 385.339 393.833 385.339 383.222C385.339 372.612 376.738 364.01 366.127 364.01C355.516 364.01 346.914 372.612 346.914 383.222C346.914 393.833 355.516 402.435 366.127 402.435Z" fill="#2F9C7F"/>
<path d="M363.506 393.222C363.174 393.222 362.847 393.144 362.55 392.996C362.254 392.847 361.996 392.632 361.797 392.367L356.555 385.378C356.386 385.153 356.263 384.898 356.193 384.626C356.123 384.353 356.107 384.07 356.146 383.792C356.186 383.514 356.28 383.246 356.423 383.004C356.566 382.762 356.755 382.551 356.98 382.382C357.205 382.214 357.461 382.091 357.733 382.021C358.005 381.952 358.289 381.937 358.567 381.977C358.845 382.017 359.112 382.111 359.354 382.255C359.596 382.398 359.806 382.588 359.975 382.813L363.404 387.385L372.211 374.174C372.526 373.703 373.014 373.375 373.57 373.264C374.126 373.153 374.703 373.267 375.175 373.582C375.646 373.896 375.974 374.385 376.085 374.941C376.196 375.497 376.082 376.074 375.768 376.545L365.285 392.27C365.095 392.554 364.84 392.789 364.541 392.954C364.242 393.12 363.907 393.211 363.566 393.221L363.506 393.222Z" fill="white"/>
<path d="M642.44 473.447C641.53 488.397 640.623 503.351 639.72 518.308C638.12 544.728 636.52 571.151 634.92 597.577C633.66 618.467 632.397 639.354 631.13 660.238C630.09 660.958 629.05 661.677 628 662.387C628.61 652.417 629.213 642.447 629.81 632.478C631.41 606.047 633.01 579.624 634.61 553.208C636.22 526.618 637.83 500.031 639.44 473.447C639.55 471.518 642.55 471.518 642.44 473.447Z" fill="white"/>
<path d="M531.621 583.58L584.489 539.004L599.323 526.497C600.801 525.251 598.67 523.138 597.202 524.376L544.333 568.952L529.499 581.459C528.022 582.705 530.153 584.818 531.621 583.58Z" fill="white"/>
<path d="M510.657 652.865L549.208 618.849C550.659 617.569 548.53 615.454 547.087 616.728L508.536 650.743C507.085 652.023 509.214 654.138 510.657 652.865Z" fill="white"/>
<path d="M139.657 637.865L178.208 603.849C179.659 602.569 177.53 600.454 176.087 601.728L137.536 635.743C136.085 637.023 138.214 639.138 139.657 637.865Z" fill="white"/>
<path d="M636.582 539.783C641.643 539.568 646.674 540.658 651.192 542.949C655.71 545.239 659.562 548.654 662.379 552.864C663.434 554.472 666.032 552.97 664.97 551.349C661.885 546.691 657.653 542.904 652.682 540.353C647.71 537.802 642.166 536.572 636.582 536.783C634.66 536.873 634.649 539.874 636.582 539.783Z" fill="white"/>
<path d="M216.47 596.058C242.123 608.267 262.668 629.104 274.513 654.927C275.317 656.68 277.904 655.157 277.104 653.413C267.685 633.071 252.957 615.644 234.47 602.966C229.233 599.371 223.721 596.195 217.984 593.467C216.25 592.642 214.726 595.227 216.47 596.058Z" fill="white"/>
<path d="M214.545 575.198C212.485 586.648 209.972 598.005 207.005 609.268C201.763 629.16 195.126 648.659 187.145 667.618C183.725 675.758 180.062 683.785 176.155 691.698C175.305 691.168 174.465 690.638 173.625 690.098C182.564 671.933 190.229 653.167 196.565 633.938C202.984 614.474 208.023 594.581 211.645 574.408C211.985 572.508 214.885 573.318 214.545 575.198Z" fill="white"/>
<path d="M242.654 439.066C250.698 439.066 257.219 432.546 257.219 424.502C257.219 416.458 250.698 409.938 242.654 409.938C234.611 409.938 228.09 416.458 228.09 424.502C228.09 432.546 234.611 439.066 242.654 439.066Z" fill="#2F9C7F"/>
<path d="M240.668 432.083C240.416 432.083 240.168 432.024 239.943 431.912C239.718 431.799 239.522 431.636 239.372 431.435L235.398 426.137C235.14 425.793 235.03 425.361 235.091 424.936C235.151 424.51 235.379 424.126 235.722 423.869C236.066 423.611 236.498 423.5 236.923 423.561C237.349 423.622 237.733 423.849 237.99 424.193L240.59 427.659L247.266 417.644C247.384 417.466 247.536 417.313 247.712 417.193C247.889 417.074 248.088 416.991 248.297 416.948C248.506 416.906 248.722 416.905 248.931 416.946C249.141 416.988 249.34 417.07 249.517 417.188C249.695 417.306 249.847 417.459 249.966 417.636C250.084 417.814 250.167 418.013 250.208 418.222C250.249 418.432 250.249 418.647 250.207 418.856C250.165 419.065 250.082 419.264 249.962 419.441L242.016 431.361C241.872 431.577 241.679 431.755 241.452 431.88C241.225 432.006 240.972 432.075 240.713 432.082L240.668 432.083Z" fill="white"/>
<path d="M270.701 439.066C278.745 439.066 285.266 432.546 285.266 424.502C285.266 416.458 278.745 409.938 270.701 409.938C262.657 409.938 256.137 416.458 256.137 424.502C256.137 432.546 262.657 439.066 270.701 439.066Z" fill="#2F9C7F"/>
<path d="M268.714 432.083C268.463 432.083 268.215 432.024 267.99 431.912C267.765 431.799 267.569 431.636 267.418 431.435L263.445 426.137C263.187 425.793 263.077 425.361 263.137 424.936C263.198 424.51 263.425 424.126 263.769 423.869C264.113 423.611 264.545 423.5 264.97 423.561C265.396 423.622 265.779 423.849 266.037 424.193L268.637 427.659L275.313 417.644C275.431 417.466 275.582 417.313 275.759 417.193C275.936 417.074 276.135 416.991 276.344 416.948C276.553 416.906 276.769 416.905 276.978 416.946C277.187 416.988 277.387 417.07 277.564 417.188C277.742 417.306 277.894 417.459 278.013 417.636C278.131 417.814 278.214 418.013 278.255 418.222C278.296 418.432 278.296 418.647 278.254 418.856C278.212 419.065 278.129 419.264 278.009 419.441L270.063 431.361C269.919 431.577 269.725 431.755 269.499 431.88C269.272 432.006 269.018 432.075 268.759 432.082L268.714 432.083Z" fill="white"/>
<path d="M256.299 415.566C264.342 415.566 270.863 409.046 270.863 401.002C270.863 392.958 264.342 386.438 256.299 386.438C248.255 386.438 241.734 392.958 241.734 401.002C241.734 409.046 248.255 415.566 256.299 415.566Z" fill="#2F9C7F"/>
<path d="M254.312 408.582C254.061 408.582 253.812 408.523 253.588 408.411C253.363 408.298 253.167 408.135 253.016 407.934L249.043 402.636C248.785 402.292 248.674 401.86 248.735 401.435C248.796 401.009 249.023 400.625 249.367 400.368C249.711 400.11 250.143 399.999 250.568 400.06C250.993 400.121 251.377 400.348 251.635 400.692L254.234 404.157L260.911 394.143C261.15 393.788 261.521 393.541 261.941 393.458C262.361 393.375 262.797 393.462 263.153 393.7C263.51 393.937 263.758 394.307 263.843 394.726C263.928 395.146 263.843 395.583 263.607 395.94L255.66 407.86C255.516 408.076 255.323 408.254 255.096 408.379C254.87 408.505 254.616 408.574 254.357 408.581L254.312 408.582Z" fill="white"/>
<path d="M298.414 401.999L296.263 402.214L285.65 430.263H228.037L217.424 402.214L215.274 401.999C214.587 401.93 213.894 402.006 213.238 402.222C212.583 402.438 211.98 402.789 211.468 403.251C210.957 403.714 210.548 404.28 210.268 404.91C209.988 405.541 209.844 406.223 209.844 406.913V470.491C209.844 472.973 210.333 475.431 211.282 477.724C212.232 480.017 213.625 482.101 215.38 483.856C217.135 485.611 219.218 487.003 221.512 487.953C223.805 488.903 226.262 489.392 228.745 489.392H284.943C287.425 489.392 289.883 488.903 292.176 487.953C294.469 487.003 296.553 485.611 298.308 483.856C300.063 482.101 301.455 480.017 302.405 477.724C303.355 475.431 303.844 472.973 303.844 470.491V406.913C303.844 406.223 303.699 405.541 303.419 404.91C303.14 404.28 302.731 403.714 302.219 403.251C301.707 402.789 301.105 402.438 300.449 402.222C299.794 402.006 299.1 401.93 298.414 401.999Z" fill="#F2F2F2"/>
<path d="M379.622 338.51C378.911 336.419 376.169 336.023 373.96 336.03C369.036 336.044 364.117 336.254 359.205 336.658L359.697 336.089C358.392 335.538 356.955 335.377 355.56 335.625C354.205 336.009 353.091 337.565 353.704 338.834C354.164 339.786 355.449 340.392 355.356 341.446C355.2 343.23 351.747 342.637 351.21 344.345C351.136 344.684 351.17 345.038 351.305 345.358C351.44 345.677 351.672 345.947 351.967 346.13C352.564 346.485 353.235 346.697 353.928 346.752C361.236 347.813 368.695 346.851 375.495 343.971C376.683 343.539 377.768 342.862 378.677 341.984C379.126 341.539 379.45 340.984 379.616 340.374C379.782 339.764 379.784 339.121 379.622 338.51Z" fill="#E6E6E6"/>
</svg>
